<svg id="Layer_1" data-name="Layer 1" xmlns="http://www.w3.org/2000/svg" viewBox="0 0 261.71417 59.88721"><defs><style>.cls-1{fill:#3470a3;}</style></defs><title>logo</title><path class="cls-1" d="M261.683,7.76758a4.1548,4.1548,0,0,0-1.57227-2.79053l-3.083-2.4165a4.18478,4.18478,0,0,0-5.876.71191l-2.416,3.08252a4.13983,4.13983,0,0,0-.86768,2.81647l-42.05225,6.919a18.52854,18.52854,0,0,0-36.68164,3.71033,18.5098,18.5098,0,0,0,2.13208,8.27753L167.226,29.3028V15.35107a7.19757,7.19757,0,0,0-1.9917-5.186,7.43466,7.43466,0,0,0-5.49377-1.88184,9.71947,9.71947,0,0,0-4.39862.98718c-1.3623.65814-3.11591,1.46106-3.11591,2.40869V9h-6V31h6V16.03925a5.63628,5.63628,0,0,1,4.98193-2.57007c2.72266,0,4.01807,1.3772,4.01807,4.13V31h-.13037L92.70475,50.95355l-.87427-1.58734a3.852,3.852,0,0,0-5.23437-1.5166l-3.10156,1.70752a3.82816,3.82816,0,0,0-1.58545,1.66144.73551.73551,0,0,0-.22217-.1087L17.67424,34.37134l1.02734-2.94312a1.92365,1.92365,0,0,0-.33789-1.85742l-4.99316-5.97949a1.909,1.909,0,0,0-.99023-.625,1.86555,1.86555,0,0,0-.77637-.03662L4.11369,24.11182A1.91205,1.91205,0,0,0,2.6049,25.37207l-2.499,7.16016a1.92409,1.92409,0,0,0,.33789,1.85742l4.99219,5.978a1.91121,1.91121,0,0,0,1.46875.686,1.935,1.935,0,0,0,.29883-.02344l7.49023-1.18213a1.91233,1.91233,0,0,0,1.50879-1.25977l.97607-2.79645L81.308,52.561a.74918.74918,0,0,0,.19043.02441.03353.03353,0,0,0,.01318-.00317,3.88964,3.88964,0,0,0,.46729,2.20972l1.707,3.1001a3.85331,3.85331,0,0,0,5.23633,1.51611l3.09961-1.70752a3.85836,3.85836,0,0,0,1.51563-5.23486l-.09131-.16571L166.4528,31h.77319v-.13428l4.78931-1.44293a18.38931,18.38931,0,0,0,34.04691-11.84906l42.17015-6.93994a4.13154,4.13154,0,0,0,1.21923,1.59766l3.08056,2.4165a4.18258,4.18258,0,0,0,5.87414-.71191l2.41571-3.08252A4.15523,4.15523,0,0,0,261.683,7.76758ZM14.78654,38.09375a.41474.41474,0,0,1-.32715.27295L6.96916,39.54883a.41881.41881,0,0,1-.38281-.14355L1.59513,33.42871a.41784.41784,0,0,1-.07324-.40283l2.499-7.15918a.41446.41446,0,0,1,.32715-.27344l7.55469-1.187a.42927.42927,0,0,1,.10352.0127.41808.41808,0,0,1,.21387.13525l4.99219,5.978a.41692.41692,0,0,1,.07324.40234ZM91.29728,56.38721l-3.09863,1.70752a2.4113,2.4113,0,0,1-3.19824-.92627l-1.707-3.1001a2.35619,2.35619,0,0,1,.9248-3.19727l3.10156-1.70752a2.35128,2.35128,0,0,1,3.19629.92627l1.707,3.09961A2.35611,2.35611,0,0,1,91.29728,56.38721ZM187.66154,36.8291a17.02808,17.02808,0,1,1,17.02832-17.02832A17.04714,17.04714,0,0,1,187.66154,36.8291ZM259.642,9.92773l-2.416,3.08252a2.74867,2.74867,0,0,1-3.77051.457l-3.083-2.4165a2.68429,2.68429,0,0,1-.457-3.77l2.416-3.08252a2.68475,2.68475,0,0,1,3.77051-.457l3.083,2.4165a2.68415,2.68415,0,0,1,.457,3.77Z" transform="translate(0)"/><rect class="cls-1" x="69.22599" width="6" height="31"/><path class="cls-1" d="M93.4611,31.55054c2.783,0,4.76489-1.13116,6.76489-3.39587V39h6V9h-6v2.63324c-2-2.2323-3.95044-3.35-6.76489-3.35a8.86554,8.86554,0,0,0-7.03076,3.09766C84.6237,13.44629,83.74,16.28448,83.74,19.89392c0,3.61029.88239,6.45563,2.70343,8.536A8.87293,8.87293,0,0,0,93.4611,31.55054ZM91.33171,15.25928a5.1045,5.1045,0,0,1,4.03735-1.7901,5.97991,5.97991,0,0,1,2.79541.71118c.93359.47461,2.06152,1.07892,2.06152,1.813v7.80194c0,.73407-1.136,1.34637-2.0835,1.83521a6.02185,6.02185,0,0,1-2.80981.73407,5.06944,5.06944,0,0,1-4.01917-1.78931,6.85978,6.85978,0,0,1-1.55243-4.68134A6.7993,6.7993,0,0,1,91.33171,15.25928Z" transform="translate(0)"/><path class="cls-1" d="M117.48771,18.8158a6.374,6.374,0,0,0-2.29541,5.3924,6.61136,6.61136,0,0,0,2.36353,5.39246,8.572,8.572,0,0,0,5.47522,1.94989,9.53534,9.53534,0,0,0,7.19495-2.89117V31h6V16.68158a7.5225,7.5225,0,0,0-2.96716-6.42474,12.03834,12.03834,0,0,0-7.11737-1.97363,14.14746,14.14746,0,0,0-9.743,3.48846l2.26582,4.084a9.15827,9.15827,0,0,1,6.36411-2.61591,5.68844,5.68844,0,0,1,3.527,1.00934,3.429,3.429,0,0,1,1.3691,2.79657l-7.06533.00287A8.55226,8.55226,0,0,0,117.48771,18.8158ZM130.226,20.93335v5.87933c0,.20343-2.683.79144-4.8551.79144a5.104,5.104,0,0,1-3.07074-.89465,3.03677,3.03677,0,0,1-.06514-4.84192,5.2495,5.2495,0,0,1,3.14674-.9176C127.52237,20.95,130.226,20.93335,130.226,20.93335Z" transform="translate(0)"/><path class="cls-1" d="M187.51774,8.2832a11.20852,11.20852,0,0,0-8.51318,3.35,11.524,11.524,0,0,0-3.18945,8.26068,11.60223,11.60223,0,0,0,3.18945,8.28369,12.45989,12.45989,0,0,0,17.05,0,11.56055,11.56055,0,0,0,3.21143-8.28369,11.48279,11.48279,0,0,0-3.21143-8.26068A11.28641,11.28641,0,0,0,187.51774,8.2832Zm4.17651,16.22321a5.09268,5.09268,0,0,1-4.17651,1.85815,5.04134,5.04134,0,0,1-4.12915-1.85815,7.05766,7.05766,0,0,1-1.51562-4.61249,6.98689,6.98689,0,0,1,1.51563-4.5658,5.03969,5.03969,0,0,1,4.12915-1.85895,5.091,5.091,0,0,1,4.17651,1.85895,6.99526,6.99526,0,0,1,1.51416,4.5658A7.06612,7.06612,0,0,1,191.69426,24.50641Z" transform="translate(0)"/><polygon class="cls-1" points="59.226 25 44.226 25 44.226 18 59.226 18 59.226 13 44.226 13 44.226 6 59.226 6 59.226 0 38.226 0 38.226 31 59.226 31 59.226 25"/></svg>